<svg width="16" height="16" viewBox="0 0 16 16" fill="none" xmlns="http://www.w3.org/2000/svg">
    <path
        d="M3.80357 3.09644C3.6083 2.90118 3.29172 2.90118 3.09646 3.09644C2.9012 3.29171 2.9012 3.60829 3.09646 3.80355L3.80357 3.09644ZM12.4965 13.2036C12.6917 13.3988 13.0083 13.3988 13.2036 13.2036C13.3988 13.0083 13.3988 12.6917 13.2036 12.4964L12.4965 13.2036ZM14.5 8C14.5 11.5899 11.5899 14.5 8 14.5V15.5C12.1421 15.5 15.5 12.1421 15.5 8H14.5ZM8 14.5C4.41015 14.5 1.5 11.5899 1.5 8H0.5C0.5 12.1421 3.85786 15.5 8 15.5V14.5ZM1.5 8C1.5 4.41015 4.41015 1.5 8 1.5V0.5C3.85786 0.5 0.5 3.85786 0.5 8H1.5ZM8 1.5C11.5899 1.5 14.5 4.41015 14.5 8H15.5C15.5 3.85786 12.1421 0.5 8 0.5V1.5ZM3.09646 3.80355L12.4965 13.2036L13.2036 12.4964L3.80357 3.09644L3.09646 3.80355Z"
        fill="white"/>
</svg>
