<svg width="14" height="16" viewBox="0 0 14 16" fill="none" xmlns="http://www.w3.org/2000/svg">
    <path
        d="M9.28966 15.5C9.5658 15.5 9.78966 15.2761 9.78966 15C9.78966 14.7239 9.5658 14.5 9.28966 14.5V15.5ZM1.00486 14.1L0.509249 14.033L0.508057 14.0435L1.00486 14.1ZM5.92156 8.8735C6.18307 8.78479 6.32315 8.50089 6.23445 8.23938C6.14574 7.97787 5.86184 7.83779 5.60033 7.92649L5.92156 8.8735ZM9.92008 11.8505C9.83749 11.587 9.55692 11.4403 9.29342 11.5229C9.02992 11.6055 8.88326 11.8861 8.96585 12.1496L9.92008 11.8505ZM13.4782 10.1462C13.5589 9.88207 13.4102 9.60256 13.1461 9.52186C12.882 9.44116 12.6025 9.58982 12.5218 9.85391L13.4782 10.1462ZM5.03353 4.5C5.03353 2.83672 6.38434 1.5 8.11338 1.5V0.5C5.85344 0.5 4.03353 2.26328 4.03353 4.5H5.03353ZM8.11338 1.5C9.84242 1.5 11.1932 2.83672 11.1932 4.5H12.1932C12.1932 2.26328 10.3733 0.5 8.11338 0.5V1.5ZM11.1932 4.5C11.1932 5.36094 10.8353 6.49192 10.2335 7.40641C9.62161 8.33643 8.85797 8.9 8.11338 8.9V9.9C9.36328 9.9 10.3896 8.98857 11.0689 7.95609C11.7585 6.90808 12.1932 5.58906 12.1932 4.5H11.1932ZM8.11338 8.9C7.36879 8.9 6.60515 8.33643 5.99321 7.40641C5.39148 6.49192 5.03353 5.36094 5.03353 4.5H4.03353C4.03353 5.58906 4.46826 6.90808 5.15783 7.95609C5.83719 8.98857 6.86348 9.9 8.11338 9.9V8.9ZM9.28966 14.5H1.82311V15.5H9.28966V14.5ZM1.82311 14.5C1.62225 14.5 1.48285 14.322 1.50166 14.1565L0.508057 14.0435C0.424583 14.778 1.00116 15.5 1.82311 15.5V14.5ZM1.50036 14.1669C1.83183 11.7132 3.58751 9.6652 5.92156 8.8735L5.60033 7.92649C2.92259 8.83478 0.893853 11.1868 0.50936 14.0331L1.50036 14.1669ZM8.96585 12.1496C9.15987 12.7686 9.37541 13.2427 9.6214 13.5768C9.86871 13.9128 10.1872 14.1582 10.5841 14.1932C10.9725 14.2275 11.3015 14.0474 11.5465 13.8406C11.7943 13.6313 12.0131 13.3484 12.2016 13.0547C12.5803 12.4648 12.8994 11.7316 13.1201 11.1626C13.2318 10.8748 13.3208 10.6223 13.382 10.4414C13.4126 10.3509 13.4364 10.278 13.4526 10.2274C13.4607 10.202 13.467 10.1822 13.4712 10.1685C13.4734 10.1616 13.475 10.1563 13.4762 10.1526C13.4768 10.1507 13.4772 10.1492 13.4776 10.1481C13.4777 10.1476 13.4779 10.1472 13.478 10.1468C13.478 10.1467 13.4781 10.1465 13.4781 10.1464C13.4781 10.1463 13.4782 10.1462 13 10C12.5218 9.85391 12.5219 9.85384 12.5219 9.8538C12.5219 9.85382 12.5219 9.8538 12.5218 9.85384C12.5218 9.85392 12.5218 9.8541 12.5217 9.85438C12.5215 9.85495 12.5212 9.85591 12.5208 9.85727C12.52 9.85998 12.5186 9.86427 12.5168 9.87005C12.5132 9.88162 12.5077 9.89918 12.5003 9.92218C12.4855 9.9682 12.4635 10.0359 12.4347 10.1209C12.3771 10.291 12.2931 10.5294 12.1878 10.8009C11.9747 11.3504 11.6842 12.0096 11.3601 12.5145C11.1972 12.7683 11.0412 12.9584 10.9014 13.0765C10.7587 13.1969 10.6869 13.1984 10.6719 13.1971C10.6655 13.1965 10.5779 13.1893 10.4267 12.984C10.2742 12.7769 10.099 12.4212 9.92008 11.8505L8.96585 12.1496Z"
        fill="#8C99B2"/>
</svg>
