<svg width="161" height="84" viewBox="0 0 161 84" fill="none" xmlns="http://www.w3.org/2000/svg">
<rect width="161" height="84" fill="white"/>
<path d="M16.3018 24.8623L16.4932 26.1748L16.7734 24.9922L18.7422 18.0469H19.8496L21.7705 24.9922L22.0439 26.1953L22.2559 24.8555L23.8008 18.0469H25.1201L22.707 28H21.5107L19.46 20.7471L19.3027 19.9883L19.1455 20.7471L17.0195 28H15.8232L13.417 18.0469H14.7295L16.3018 24.8623ZM29.2354 28.1367C28.2327 28.1367 27.417 27.8086 26.7881 27.1523C26.1592 26.4915 25.8447 25.6097 25.8447 24.5068V24.2744C25.8447 23.5407 25.9837 22.8867 26.2617 22.3125C26.5443 21.7337 26.9362 21.2826 27.4375 20.959C27.9434 20.6309 28.4902 20.4668 29.0781 20.4668C30.0397 20.4668 30.7871 20.7835 31.3203 21.417C31.8535 22.0505 32.1201 22.9574 32.1201 24.1377V24.6641H27.1094C27.1276 25.3932 27.3395 25.9834 27.7451 26.4346C28.1553 26.8812 28.6748 27.1045 29.3037 27.1045C29.7503 27.1045 30.1286 27.0133 30.4385 26.8311C30.7484 26.6488 31.0195 26.4072 31.252 26.1064L32.0244 26.708C31.4046 27.6605 30.4749 28.1367 29.2354 28.1367ZM29.0781 21.5059C28.5677 21.5059 28.1393 21.6927 27.793 22.0664C27.4466 22.4355 27.2324 22.9551 27.1504 23.625H30.8555V23.5293C30.819 22.8867 30.6458 22.39 30.3359 22.0391C30.026 21.6836 29.6068 21.5059 29.0781 21.5059ZM41.6289 28C41.556 27.8542 41.4967 27.5944 41.4512 27.2207C40.8633 27.8314 40.1615 28.1367 39.3457 28.1367C38.6165 28.1367 38.0173 27.9316 37.5479 27.5215C37.083 27.1068 36.8506 26.5827 36.8506 25.9492C36.8506 25.179 37.1423 24.582 37.7256 24.1582C38.3135 23.7298 39.1383 23.5156 40.2002 23.5156H41.4307V22.9346C41.4307 22.4925 41.2985 22.1416 41.0342 21.8818C40.7699 21.6175 40.3802 21.4854 39.8652 21.4854C39.4141 21.4854 39.0358 21.5993 38.7305 21.8271C38.4251 22.055 38.2725 22.3307 38.2725 22.6543H37.001C37.001 22.2852 37.1309 21.9297 37.3906 21.5879C37.6549 21.2415 38.0104 20.9681 38.457 20.7676C38.9082 20.5671 39.4027 20.4668 39.9404 20.4668C40.7926 20.4668 41.4603 20.681 41.9434 21.1094C42.4264 21.5332 42.6771 22.1188 42.6953 22.8662V26.2705C42.6953 26.9495 42.7819 27.4896 42.9551 27.8906V28H41.6289ZM39.5303 27.0361C39.9268 27.0361 40.3027 26.9336 40.6582 26.7285C41.0137 26.5234 41.2712 26.2568 41.4307 25.9287V24.4111H40.4395C38.89 24.4111 38.1152 24.8646 38.1152 25.7715C38.1152 26.168 38.2474 26.4779 38.5117 26.7012C38.776 26.9245 39.1156 27.0361 39.5303 27.0361ZM48.2529 21.7383C48.0615 21.7064 47.8542 21.6904 47.6309 21.6904C46.8014 21.6904 46.2386 22.0436 45.9424 22.75V28H44.6777V20.6035H45.9082L45.9287 21.458C46.3434 20.7972 46.9313 20.4668 47.6924 20.4668C47.9385 20.4668 48.1253 20.4987 48.2529 20.5625V21.7383ZM52.3545 28.1367C51.3519 28.1367 50.5361 27.8086 49.9072 27.1523C49.2783 26.4915 48.9639 25.6097 48.9639 24.5068V24.2744C48.9639 23.5407 49.1029 22.8867 49.3809 22.3125C49.6634 21.7337 50.0553 21.2826 50.5566 20.959C51.0625 20.6309 51.6094 20.4668 52.1973 20.4668C53.1589 20.4668 53.9062 20.7835 54.4395 21.417C54.9727 22.0505 55.2393 22.9574 55.2393 24.1377V24.6641H50.2285C50.2467 25.3932 50.4587 25.9834 50.8643 26.4346C51.2744 26.8812 51.7939 27.1045 52.4229 27.1045C52.8695 27.1045 53.2477 27.0133 53.5576 26.8311C53.8675 26.6488 54.1387 26.4072 54.3711 26.1064L55.1436 26.708C54.5238 27.6605 53.5941 28.1367 52.3545 28.1367ZM52.1973 21.5059C51.6868 21.5059 51.2585 21.6927 50.9121 22.0664C50.5658 22.4355 50.3516 22.9551 50.2695 23.625H53.9746V23.5293C53.9382 22.8867 53.765 22.39 53.4551 22.0391C53.1452 21.6836 52.7259 21.5059 52.1973 21.5059Z" fill="#143675"/>
<path d="M35.6582 48.0293C35.6582 50.5371 35.2363 52.7285 34.3926 54.6035C33.5488 56.4668 32.3535 57.8906 30.8066 58.875C29.2598 59.8594 27.4551 60.3516 25.3926 60.3516C23.377 60.3516 21.5898 59.8594 20.0312 58.875C18.4727 57.8789 17.2598 56.4668 16.3926 54.6387C15.5371 52.7988 15.0977 50.6719 15.0742 48.2578V46.4121C15.0742 43.9512 15.502 41.7773 16.3574 39.8906C17.2129 38.0039 18.4199 36.5625 19.9785 35.5664C21.5488 34.5586 23.3418 34.0547 25.3574 34.0547C27.4082 34.0547 29.2129 34.5527 30.7715 35.5488C32.3418 36.5332 33.5488 37.9688 34.3926 39.8555C35.2363 41.7305 35.6582 43.916 35.6582 46.4121V48.0293ZM32.3008 46.377C32.3008 43.3418 31.6914 41.0156 30.4727 39.3984C29.2539 37.7695 27.5488 36.9551 25.3574 36.9551C23.2246 36.9551 21.543 37.7695 20.3125 39.3984C19.0938 41.0156 18.4668 43.2656 18.4316 46.1484V48.0293C18.4316 50.9707 19.0469 53.2852 20.2773 54.9727C21.5195 56.6484 23.2246 57.4863 25.3926 57.4863C27.5723 57.4863 29.2598 56.6953 30.4551 55.1133C31.6504 53.5195 32.2656 51.2402 32.3008 48.2754V46.377ZM43.2871 40.9805L43.3926 43.3711C44.8457 41.543 46.7441 40.6289 49.0879 40.6289C53.1074 40.6289 55.1348 42.8965 55.1699 47.4316V60H51.918V47.4141C51.9062 46.043 51.5898 45.0293 50.9688 44.373C50.3594 43.7168 49.4043 43.3887 48.1035 43.3887C47.0488 43.3887 46.123 43.6699 45.3262 44.2324C44.5293 44.7949 43.9082 45.5332 43.4629 46.4473V60H40.2109V40.9805H43.2871ZM63.6074 60H60.3555V33H63.6074V60ZM75.0508 55.2363L79.4805 40.9805H82.9609L75.3145 62.9355C74.1309 66.0996 72.25 67.6816 69.6719 67.6816L69.0566 67.6289L67.8438 67.4004V64.7637L68.7227 64.834C69.8242 64.834 70.6797 64.6113 71.2891 64.166C71.9102 63.7207 72.4199 62.9062 72.8184 61.7227L73.5391 59.7891L66.7539 40.9805H70.3047L75.0508 55.2363Z" fill="#C6296C"/>
<path d="M106.658 48.0293C106.658 50.5371 106.236 52.7285 105.393 54.6035C104.549 56.4668 103.354 57.8906 101.807 58.875C100.26 59.8594 98.4551 60.3516 96.3926 60.3516C94.377 60.3516 92.5898 59.8594 91.0312 58.875C89.4727 57.8789 88.2598 56.4668 87.3926 54.6387C86.5371 52.7988 86.0977 50.6719 86.0742 48.2578V46.4121C86.0742 43.9512 86.502 41.7773 87.3574 39.8906C88.2129 38.0039 89.4199 36.5625 90.9785 35.5664C92.5488 34.5586 94.3418 34.0547 96.3574 34.0547C98.4082 34.0547 100.213 34.5527 101.771 35.5488C103.342 36.5332 104.549 37.9688 105.393 39.8555C106.236 41.7305 106.658 43.916 106.658 46.4121V48.0293ZM103.301 46.377C103.301 43.3418 102.691 41.0156 101.473 39.3984C100.254 37.7695 98.5488 36.9551 96.3574 36.9551C94.2246 36.9551 92.543 37.7695 91.3125 39.3984C90.0938 41.0156 89.4668 43.2656 89.4316 46.1484V48.0293C89.4316 50.9707 90.0469 53.2852 91.2773 54.9727C92.5195 56.6484 94.2246 57.4863 96.3926 57.4863C98.5723 57.4863 100.26 56.6953 101.455 55.1133C102.65 53.5195 103.266 51.2402 103.301 48.2754V46.377ZM114.287 40.9805L114.393 43.3711C115.846 41.543 117.744 40.6289 120.088 40.6289C124.107 40.6289 126.135 42.8965 126.17 47.4316V60H122.918V47.4141C122.906 46.043 122.59 45.0293 121.969 44.373C121.359 43.7168 120.404 43.3887 119.104 43.3887C118.049 43.3887 117.123 43.6699 116.326 44.2324C115.529 44.7949 114.908 45.5332 114.463 46.4473V60H111.211V40.9805H114.287ZM138.967 60.3516C136.389 60.3516 134.291 59.5078 132.674 57.8203C131.057 56.1211 130.248 53.8535 130.248 51.0176V50.4199C130.248 48.5332 130.605 46.8516 131.32 45.375C132.047 43.8867 133.055 42.7266 134.344 41.8945C135.645 41.0508 137.051 40.6289 138.562 40.6289C141.035 40.6289 142.957 41.4434 144.328 43.0723C145.699 44.7012 146.385 47.0332 146.385 50.0684V51.4219H133.5C133.547 53.2969 134.092 54.8145 135.135 55.9746C136.189 57.123 137.525 57.6973 139.143 57.6973C140.291 57.6973 141.264 57.4629 142.061 56.9941C142.857 56.5254 143.555 55.9043 144.152 55.1309L146.139 56.6777C144.545 59.127 142.154 60.3516 138.967 60.3516ZM138.562 43.3008C137.25 43.3008 136.148 43.7812 135.258 44.7422C134.367 45.6914 133.816 47.0273 133.605 48.75H143.133V48.5039C143.039 46.8516 142.594 45.5742 141.797 44.6719C141 43.7578 139.922 43.3008 138.562 43.3008Z" fill="#143675"/>
</svg>
