<svg width="139" height="51" viewBox="0 0 139 51" fill="none" xmlns="http://www.w3.org/2000/svg">
<g clip-path="url(#clip0_308_19)">
<path d="M5.30176 9.8623L5.49316 11.1748L5.77344 9.99219L7.74219 3.04688H8.84961L10.7705 9.99219L11.0439 11.1953L11.2559 9.85547L12.8008 3.04688H14.1201L11.707 13H10.5107L8.45996 5.74707L8.30273 4.98828L8.14551 5.74707L6.01953 13H4.82324L2.41699 3.04688H3.72949L5.30176 9.8623ZM18.2354 13.1367C17.2327 13.1367 16.417 12.8086 15.7881 12.1523C15.1592 11.4915 14.8447 10.6097 14.8447 9.50684V9.27441C14.8447 8.54069 14.9837 7.88672 15.2617 7.3125C15.5443 6.73372 15.9362 6.28255 16.4375 5.95898C16.9434 5.63086 17.4902 5.4668 18.0781 5.4668C19.0397 5.4668 19.7871 5.78353 20.3203 6.41699C20.8535 7.05046 21.1201 7.95736 21.1201 9.1377V9.66406H16.1094C16.1276 10.3932 16.3395 10.9834 16.7451 11.4346C17.1553 11.8812 17.6748 12.1045 18.3037 12.1045C18.7503 12.1045 19.1286 12.0133 19.4385 11.8311C19.7484 11.6488 20.0195 11.4072 20.252 11.1064L21.0244 11.708C20.4046 12.6605 19.4749 13.1367 18.2354 13.1367ZM18.0781 6.50586C17.5677 6.50586 17.1393 6.69271 16.793 7.06641C16.4466 7.43555 16.2324 7.95508 16.1504 8.625H19.8555V8.5293C19.819 7.88672 19.6458 7.38997 19.3359 7.03906C19.026 6.68359 18.6068 6.50586 18.0781 6.50586ZM30.6289 13C30.556 12.8542 30.4967 12.5944 30.4512 12.2207C29.8633 12.8314 29.1615 13.1367 28.3457 13.1367C27.6165 13.1367 27.0173 12.9316 26.5479 12.5215C26.083 12.1068 25.8506 11.5827 25.8506 10.9492C25.8506 10.179 26.1423 9.58203 26.7256 9.1582C27.3135 8.72982 28.1383 8.51562 29.2002 8.51562H30.4307V7.93457C30.4307 7.49251 30.2985 7.1416 30.0342 6.88184C29.7699 6.61751 29.3802 6.48535 28.8652 6.48535C28.4141 6.48535 28.0358 6.59928 27.7305 6.82715C27.4251 7.05501 27.2725 7.33073 27.2725 7.6543H26.001C26.001 7.28516 26.1309 6.92969 26.3906 6.58789C26.6549 6.24154 27.0104 5.9681 27.457 5.76758C27.9082 5.56706 28.4027 5.4668 28.9404 5.4668C29.7926 5.4668 30.4603 5.68099 30.9434 6.10938C31.4264 6.5332 31.6771 7.11882 31.6953 7.86621V11.2705C31.6953 11.9495 31.7819 12.4896 31.9551 12.8906V13H30.6289ZM28.5303 12.0361C28.9268 12.0361 29.3027 11.9336 29.6582 11.7285C30.0137 11.5234 30.2712 11.2568 30.4307 10.9287V9.41113H29.4395C27.89 9.41113 27.1152 9.86458 27.1152 10.7715C27.1152 11.168 27.2474 11.4779 27.5117 11.7012C27.776 11.9245 28.1156 12.0361 28.5303 12.0361ZM37.2529 6.73828C37.0615 6.70638 36.8542 6.69043 36.6309 6.69043C35.8014 6.69043 35.2386 7.04362 34.9424 7.75V13H33.6777V5.60352H34.9082L34.9287 6.45801C35.3434 5.7972 35.9313 5.4668 36.6924 5.4668C36.9385 5.4668 37.1253 5.4987 37.2529 5.5625V6.73828ZM41.3545 13.1367C40.3519 13.1367 39.5361 12.8086 38.9072 12.1523C38.2783 11.4915 37.9639 10.6097 37.9639 9.50684V9.27441C37.9639 8.54069 38.1029 7.88672 38.3809 7.3125C38.6634 6.73372 39.0553 6.28255 39.5566 5.95898C40.0625 5.63086 40.6094 5.4668 41.1973 5.4668C42.1589 5.4668 42.9062 5.78353 43.4395 6.41699C43.9727 7.05046 44.2393 7.95736 44.2393 9.1377V9.66406H39.2285C39.2467 10.3932 39.4587 10.9834 39.8643 11.4346C40.2744 11.8812 40.7939 12.1045 41.4229 12.1045C41.8695 12.1045 42.2477 12.0133 42.5576 11.8311C42.8675 11.6488 43.1387 11.4072 43.3711 11.1064L44.1436 11.708C43.5238 12.6605 42.5941 13.1367 41.3545 13.1367ZM41.1973 6.50586C40.6868 6.50586 40.2585 6.69271 39.9121 7.06641C39.5658 7.43555 39.3516 7.95508 39.2695 8.625H42.9746V8.5293C42.9382 7.88672 42.765 7.38997 42.4551 7.03906C42.1452 6.68359 41.7259 6.50586 41.1973 6.50586Z" fill="#143675"/>
<path d="M24.6582 33.0293C24.6582 35.5371 24.2363 37.7285 23.3926 39.6035C22.5488 41.4668 21.3535 42.8906 19.8066 43.875C18.2598 44.8594 16.4551 45.3516 14.3926 45.3516C12.377 45.3516 10.5898 44.8594 9.03125 43.875C7.47266 42.8789 6.25977 41.4668 5.39258 39.6387C4.53711 37.7988 4.09766 35.6719 4.07422 33.2578V31.4121C4.07422 28.9512 4.50195 26.7773 5.35742 24.8906C6.21289 23.0039 7.41992 21.5625 8.97852 20.5664C10.5488 19.5586 12.3418 19.0547 14.3574 19.0547C16.4082 19.0547 18.2129 19.5527 19.7715 20.5488C21.3418 21.5332 22.5488 22.9688 23.3926 24.8555C24.2363 26.7305 24.6582 28.916 24.6582 31.4121V33.0293ZM21.3008 31.377C21.3008 28.3418 20.6914 26.0156 19.4727 24.3984C18.2539 22.7695 16.5488 21.9551 14.3574 21.9551C12.2246 21.9551 10.543 22.7695 9.3125 24.3984C8.09375 26.0156 7.4668 28.2656 7.43164 31.1484V33.0293C7.43164 35.9707 8.04688 38.2852 9.27734 39.9727C10.5195 41.6484 12.2246 42.4863 14.3926 42.4863C16.5723 42.4863 18.2598 41.6953 19.4551 40.1133C20.6504 38.5195 21.2656 36.2402 21.3008 33.2754V31.377ZM32.2871 25.9805L32.3926 28.3711C33.8457 26.543 35.7441 25.6289 38.0879 25.6289C42.1074 25.6289 44.1348 27.8965 44.1699 32.4316V45H40.918V32.4141C40.9062 31.043 40.5898 30.0293 39.9688 29.373C39.3594 28.7168 38.4043 28.3887 37.1035 28.3887C36.0488 28.3887 35.123 28.6699 34.3262 29.2324C33.5293 29.7949 32.9082 30.5332 32.4629 31.4473V45H29.2109V25.9805H32.2871ZM52.6074 45H49.3555V18H52.6074V45ZM64.0508 40.2363L68.4805 25.9805H71.9609L64.3145 47.9355C63.1309 51.0996 61.25 52.6816 58.6719 52.6816L58.0566 52.6289L56.8438 52.4004V49.7637L57.7227 49.834C58.8242 49.834 59.6797 49.6113 60.2891 49.166C60.9102 48.7207 61.4199 47.9062 61.8184 46.7227L62.5391 44.7891L55.7539 25.9805H59.3047L64.0508 40.2363Z" fill="#C6296C"/>
<path d="M95.6582 33.0293C95.6582 35.5371 95.2363 37.7285 94.3926 39.6035C93.5488 41.4668 92.3535 42.8906 90.8066 43.875C89.2598 44.8594 87.4551 45.3516 85.3926 45.3516C83.377 45.3516 81.5898 44.8594 80.0312 43.875C78.4727 42.8789 77.2598 41.4668 76.3926 39.6387C75.5371 37.7988 75.0977 35.6719 75.0742 33.2578V31.4121C75.0742 28.9512 75.502 26.7773 76.3574 24.8906C77.2129 23.0039 78.4199 21.5625 79.9785 20.5664C81.5488 19.5586 83.3418 19.0547 85.3574 19.0547C87.4082 19.0547 89.2129 19.5527 90.7715 20.5488C92.3418 21.5332 93.5488 22.9688 94.3926 24.8555C95.2363 26.7305 95.6582 28.916 95.6582 31.4121V33.0293ZM92.3008 31.377C92.3008 28.3418 91.6914 26.0156 90.4727 24.3984C89.2539 22.7695 87.5488 21.9551 85.3574 21.9551C83.2246 21.9551 81.543 22.7695 80.3125 24.3984C79.0938 26.0156 78.4668 28.2656 78.4316 31.1484V33.0293C78.4316 35.9707 79.0469 38.2852 80.2773 39.9727C81.5195 41.6484 83.2246 42.4863 85.3926 42.4863C87.5723 42.4863 89.2598 41.6953 90.4551 40.1133C91.6504 38.5195 92.2656 36.2402 92.3008 33.2754V31.377ZM103.287 25.9805L103.393 28.3711C104.846 26.543 106.744 25.6289 109.088 25.6289C113.107 25.6289 115.135 27.8965 115.17 32.4316V45H111.918V32.4141C111.906 31.043 111.59 30.0293 110.969 29.373C110.359 28.7168 109.404 28.3887 108.104 28.3887C107.049 28.3887 106.123 28.6699 105.326 29.2324C104.529 29.7949 103.908 30.5332 103.463 31.4473V45H100.211V25.9805H103.287ZM127.967 45.3516C125.389 45.3516 123.291 44.5078 121.674 42.8203C120.057 41.1211 119.248 38.8535 119.248 36.0176V35.4199C119.248 33.5332 119.605 31.8516 120.32 30.375C121.047 28.8867 122.055 27.7266 123.344 26.8945C124.645 26.0508 126.051 25.6289 127.562 25.6289C130.035 25.6289 131.957 26.4434 133.328 28.0723C134.699 29.7012 135.385 32.0332 135.385 35.0684V36.4219H122.5C122.547 38.2969 123.092 39.8145 124.135 40.9746C125.189 42.123 126.525 42.6973 128.143 42.6973C129.291 42.6973 130.264 42.4629 131.061 41.9941C131.857 41.5254 132.555 40.9043 133.152 40.1309L135.139 41.6777C133.545 44.127 131.154 45.3516 127.967 45.3516ZM127.562 28.3008C126.25 28.3008 125.148 28.7812 124.258 29.7422C123.367 30.6914 122.816 32.0273 122.605 33.75H132.133V33.5039C132.039 31.8516 131.594 30.5742 130.797 29.6719C130 28.7578 128.922 28.3008 127.562 28.3008Z" fill="#143675"/>
</g>
<defs>
<clipPath id="clip0_308_19">
<rect width="139" height="51" fill="white"/>
</clipPath>
</defs>
</svg>
