<svg width="135" height="65" viewBox="0 0 135 65" fill="none" xmlns="http://www.w3.org/2000/svg">
<g filter="url(#filter0_i)">
<path d="M24.96 33.16C23.808 32.936 22.752 32.6 21.792 32.152C20.832 31.672 19.952 31.16 19.152 30.616C18.352 30.04 17.632 29.448 16.992 28.84C16.352 28.2 15.792 27.592 15.312 27.016L10.608 21.208C10.064 20.568 9.472 19.8 8.832 18.904C8.224 18.008 7.648 17.128 7.104 16.264C7.2 17.064 7.28 17.912 7.344 18.808C7.44 19.672 7.488 20.472 7.488 21.208V43H4.56V9.736H5.472L18.24 26.008C18.464 26.36 18.8 26.744 19.248 27.16L33.6 9.736H34.512V43H31.584V21.208C31.584 20.408 31.616 19.512 31.68 18.52C31.776 17.496 31.872 16.568 31.968 15.736C31.296 16.664 30.592 17.64 29.856 18.664C29.12 19.656 28.448 20.504 27.84 21.208L21.312 28.936C21.952 29.384 22.624 29.8 23.328 30.184C24.064 30.536 24.848 30.808 25.68 31L24.96 33.16ZM51.3818 12.472C49.4618 12.472 47.9898 12.936 46.9658 13.864C45.9418 14.76 45.4297 15.88 45.4297 17.224C45.4297 18.408 45.6538 19.4 46.1018 20.2C46.5498 21 47.1418 21.672 47.8778 22.216C48.6138 22.76 49.4458 23.224 50.3738 23.608C51.3338 23.992 52.3258 24.36 53.3498 24.712C54.4378 25.096 55.5418 25.56 56.6618 26.104C57.7818 26.616 58.7898 27.272 59.6858 28.072C60.5818 28.84 61.3018 29.784 61.8458 30.904C62.4218 31.992 62.7098 33.32 62.7098 34.888C62.7098 36.456 62.3898 37.784 61.7498 38.872C61.1098 39.96 60.2618 40.856 59.2058 41.56C58.1818 42.232 56.9978 42.712 55.6538 43C54.3098 43.32 52.9338 43.48 51.5258 43.48C49.4458 43.48 47.4618 43.144 45.5738 42.472C43.7178 41.768 42.1178 40.92 40.7738 39.928L42.3578 37.624C42.9658 38.008 43.6218 38.392 44.3258 38.776C45.0298 39.128 45.7818 39.464 46.5818 39.784C47.4138 40.104 48.2778 40.36 49.1738 40.552C50.0698 40.744 51.0298 40.84 52.0538 40.84C53.0778 40.84 54.0538 40.744 54.9818 40.552C55.9098 40.328 56.7258 39.992 57.4298 39.544C58.1338 39.064 58.6938 38.456 59.1098 37.72C59.5258 36.952 59.7338 36.008 59.7338 34.888C59.7338 33.736 59.5098 32.76 59.0618 31.96C58.6138 31.128 58.0218 30.424 57.2858 29.848C56.5498 29.24 55.7018 28.728 54.7418 28.312C53.7818 27.864 52.7898 27.448 51.7657 27.064C50.6778 26.648 49.5738 26.216 48.4538 25.768C47.3658 25.288 46.3738 24.696 45.4778 23.992C44.5818 23.256 43.8458 22.36 43.2698 21.304C42.7258 20.216 42.4538 18.856 42.4538 17.224C42.4538 16.232 42.6618 15.288 43.0778 14.392C43.5258 13.496 44.1498 12.712 44.9498 12.04C45.7818 11.368 46.7738 10.84 47.9258 10.456C49.1098 10.04 50.4218 9.832 51.8618 9.832C52.8218 9.832 53.6698 9.848 54.4058 9.88C55.1418 9.912 55.7338 9.928 56.1818 9.928C57.2698 9.928 58.1178 9.816 58.7258 9.592C59.3658 9.336 60.0218 8.888 60.6938 8.248L62.2778 9.88C61.8298 10.488 61.3818 10.968 60.9338 11.32C60.4858 11.672 60.0058 11.944 59.4938 12.136C59.0138 12.328 58.5018 12.456 57.9578 12.52C57.4138 12.552 56.8218 12.568 56.1818 12.568C55.6378 12.568 54.9338 12.552 54.0698 12.52C53.2058 12.488 52.3098 12.472 51.3818 12.472ZM98.4326 43.096C97.2806 42.872 96.2566 42.536 95.3606 42.088C94.4646 41.64 93.6486 41.144 92.9126 40.6C92.1766 40.056 91.5046 39.48 90.8966 38.872C90.3206 38.264 89.7926 37.672 89.3126 37.096L75.5846 21.16C75.0086 20.52 74.3846 19.736 73.7126 18.808C73.0406 17.88 72.4006 16.968 71.7926 16.072C71.8566 16.904 71.9206 17.784 71.9846 18.712C72.0806 19.608 72.1286 20.424 72.1286 21.16V43H69.2006V9.688H70.1126L92.2406 36.088C92.4646 36.344 92.7046 36.632 92.9606 36.952C93.2166 37.24 93.5206 37.544 93.8726 37.864C93.8086 37.224 93.7606 36.568 93.7286 35.896C93.6966 35.224 93.6806 34.568 93.6806 33.928V10.12H96.6086V39.928C96.9926 40.152 97.3926 40.36 97.8086 40.552C98.2246 40.712 98.6726 40.84 99.1526 40.936L98.4326 43.096Z" fill="#C4C4C4"/>
<path d="M24.96 33.16C23.808 32.936 22.752 32.6 21.792 32.152C20.832 31.672 19.952 31.16 19.152 30.616C18.352 30.04 17.632 29.448 16.992 28.84C16.352 28.2 15.792 27.592 15.312 27.016L10.608 21.208C10.064 20.568 9.472 19.8 8.832 18.904C8.224 18.008 7.648 17.128 7.104 16.264C7.2 17.064 7.28 17.912 7.344 18.808C7.44 19.672 7.488 20.472 7.488 21.208V43H4.56V9.736H5.472L18.24 26.008C18.464 26.36 18.8 26.744 19.248 27.16L33.6 9.736H34.512V43H31.584V21.208C31.584 20.408 31.616 19.512 31.68 18.52C31.776 17.496 31.872 16.568 31.968 15.736C31.296 16.664 30.592 17.64 29.856 18.664C29.12 19.656 28.448 20.504 27.84 21.208L21.312 28.936C21.952 29.384 22.624 29.8 23.328 30.184C24.064 30.536 24.848 30.808 25.68 31L24.96 33.16ZM51.3818 12.472C49.4618 12.472 47.9898 12.936 46.9658 13.864C45.9418 14.76 45.4297 15.88 45.4297 17.224C45.4297 18.408 45.6538 19.4 46.1018 20.2C46.5498 21 47.1418 21.672 47.8778 22.216C48.6138 22.76 49.4458 23.224 50.3738 23.608C51.3338 23.992 52.3258 24.36 53.3498 24.712C54.4378 25.096 55.5418 25.56 56.6618 26.104C57.7818 26.616 58.7898 27.272 59.6858 28.072C60.5818 28.84 61.3018 29.784 61.8458 30.904C62.4218 31.992 62.7098 33.32 62.7098 34.888C62.7098 36.456 62.3898 37.784 61.7498 38.872C61.1098 39.96 60.2618 40.856 59.2058 41.56C58.1818 42.232 56.9978 42.712 55.6538 43C54.3098 43.32 52.9338 43.48 51.5258 43.48C49.4458 43.48 47.4618 43.144 45.5738 42.472C43.7178 41.768 42.1178 40.92 40.7738 39.928L42.3578 37.624C42.9658 38.008 43.6218 38.392 44.3258 38.776C45.0298 39.128 45.7818 39.464 46.5818 39.784C47.4138 40.104 48.2778 40.36 49.1738 40.552C50.0698 40.744 51.0298 40.84 52.0538 40.84C53.0778 40.84 54.0538 40.744 54.9818 40.552C55.9098 40.328 56.7258 39.992 57.4298 39.544C58.1338 39.064 58.6938 38.456 59.1098 37.72C59.5258 36.952 59.7338 36.008 59.7338 34.888C59.7338 33.736 59.5098 32.76 59.0618 31.96C58.6138 31.128 58.0218 30.424 57.2858 29.848C56.5498 29.24 55.7018 28.728 54.7418 28.312C53.7818 27.864 52.7898 27.448 51.7657 27.064C50.6778 26.648 49.5738 26.216 48.4538 25.768C47.3658 25.288 46.3738 24.696 45.4778 23.992C44.5818 23.256 43.8458 22.36 43.2698 21.304C42.7258 20.216 42.4538 18.856 42.4538 17.224C42.4538 16.232 42.6618 15.288 43.0778 14.392C43.5258 13.496 44.1498 12.712 44.9498 12.04C45.7818 11.368 46.7738 10.84 47.9258 10.456C49.1098 10.04 50.4218 9.832 51.8618 9.832C52.8218 9.832 53.6698 9.848 54.4058 9.88C55.1418 9.912 55.7338 9.928 56.1818 9.928C57.2698 9.928 58.1178 9.816 58.7258 9.592C59.3658 9.336 60.0218 8.888 60.6938 8.248L62.2778 9.88C61.8298 10.488 61.3818 10.968 60.9338 11.32C60.4858 11.672 60.0058 11.944 59.4938 12.136C59.0138 12.328 58.5018 12.456 57.9578 12.52C57.4138 12.552 56.8218 12.568 56.1818 12.568C55.6378 12.568 54.9338 12.552 54.0698 12.52C53.2058 12.488 52.3098 12.472 51.3818 12.472ZM98.4326 43.096C97.2806 42.872 96.2566 42.536 95.3606 42.088C94.4646 41.64 93.6486 41.144 92.9126 40.6C92.1766 40.056 91.5046 39.48 90.8966 38.872C90.3206 38.264 89.7926 37.672 89.3126 37.096L75.5846 21.16C75.0086 20.52 74.3846 19.736 73.7126 18.808C73.0406 17.88 72.4006 16.968 71.7926 16.072C71.8566 16.904 71.9206 17.784 71.9846 18.712C72.0806 19.608 72.1286 20.424 72.1286 21.16V43H69.2006V9.688H70.1126L92.2406 36.088C92.4646 36.344 92.7046 36.632 92.9606 36.952C93.2166 37.24 93.5206 37.544 93.8726 37.864C93.8086 37.224 93.7606 36.568 93.7286 35.896C93.6966 35.224 93.6806 34.568 93.6806 33.928V10.12H96.6086V39.928C96.9926 40.152 97.3926 40.36 97.8086 40.552C98.2246 40.712 98.6726 40.84 99.1526 40.936L98.4326 43.096Z" fill="#F80000" fill-opacity="0.64"/>
</g>
<path d="M69.5345 59.6804C68.4465 59.6804 67.5745 59.3844 66.9185 58.7924C66.2625 58.1844 65.9345 57.4084 65.9345 56.4644C65.9345 55.2004 66.5665 54.2084 67.8305 53.4884C69.1105 52.7684 70.9665 52.3604 73.3985 52.2644C73.3985 51.5124 73.3345 50.9604 73.2065 50.6084C73.0945 50.2404 72.8785 49.9924 72.5585 49.8644C72.2545 49.7204 71.7825 49.6484 71.1425 49.6484C70.4865 49.6484 70.0225 49.6724 69.7505 49.7204L68.7665 51.6644L66.9905 51.5444C66.7185 50.2644 66.5265 48.9364 66.4145 47.5604C67.3105 47.2564 68.2865 47.0164 69.3425 46.8404C70.4145 46.6644 71.4145 46.5764 72.3425 46.5764C74.0385 46.5764 75.2545 46.9124 75.9905 47.5844C76.7265 48.2404 77.0945 49.3364 77.0945 50.8724V55.8884C77.0945 56.1764 77.1185 56.3764 77.1665 56.4884C77.2305 56.6004 77.3585 56.7124 77.5505 56.8244L78.5105 57.3764L78.4145 58.8644C76.5585 59.2964 75.0945 59.5364 74.0225 59.5844C73.9905 59.4884 73.9425 59.3204 73.8785 59.0804C73.8145 58.8244 73.7585 58.5844 73.7105 58.3604C73.0865 58.7604 72.3985 59.0804 71.6465 59.3204C70.9105 59.5604 70.2065 59.6804 69.5345 59.6804ZM71.1425 56.9684C71.7825 56.9684 72.5585 56.7524 73.4705 56.3204L73.3745 54.4964C72.9905 54.4644 72.7345 54.4484 72.6065 54.4484C72.1745 54.4484 71.6705 54.4964 71.0945 54.5924C70.5185 54.6724 70.0625 54.7684 69.7265 54.8804C69.6785 55.0884 69.6545 55.2804 69.6545 55.4564C69.6545 55.9364 69.7825 56.3124 70.0385 56.5844C70.3105 56.8404 70.6785 56.9684 71.1425 56.9684ZM79.3436 57.1604L81.0236 56.6564V45.1604C81.0236 44.8084 80.9916 44.5844 80.9276 44.4884C80.8796 44.3764 80.7436 44.2564 80.5196 44.1284L79.4636 43.5764L79.5836 41.7524C79.9036 41.6884 80.1516 41.6484 80.3276 41.6324C82.4396 41.2484 83.9116 41.0404 84.7436 41.0084C84.9036 41.3764 85.0076 41.7924 85.0556 42.2564V55.8644C85.0556 56.2004 85.0796 56.4244 85.1276 56.5364C85.1756 56.6484 85.3116 56.7684 85.5356 56.8964L86.7116 57.5684L86.6156 59.3684H79.4156L79.3436 57.1604ZM87.1331 62.2484L88.6211 61.8404V50.8244C88.6211 50.4724 88.5971 50.2484 88.5491 50.1524C88.5011 50.0404 88.3651 49.9204 88.1411 49.7924L87.0611 49.2164L87.1811 47.4164C87.2611 47.4004 87.3411 47.3844 87.4211 47.3684C87.5011 47.3524 87.5891 47.3364 87.6851 47.3204C88.4371 47.1764 89.2291 47.0404 90.0611 46.9124C90.9091 46.7684 91.6051 46.6804 92.1491 46.6484C92.2931 46.9844 92.3891 47.3684 92.4371 47.8004C92.9331 47.4004 93.4611 47.0964 94.0211 46.8884C94.5971 46.6804 95.1651 46.5764 95.7251 46.5764C97.3251 46.5764 98.5491 47.1444 99.3971 48.2804C100.261 49.4004 100.693 51.0004 100.693 53.0804C100.693 55.2404 100.101 56.8964 98.9171 58.0484C97.7331 59.1844 96.0211 59.7524 93.7811 59.7524C93.5411 59.7524 93.1651 59.7364 92.6531 59.7044V61.0244C92.6531 61.3764 92.6771 61.6084 92.7251 61.7204C92.7731 61.8324 92.9091 61.9444 93.1331 62.0564L94.5491 62.8484L94.4531 64.5284H87.2531L87.1331 62.2484ZM94.4051 56.7764C95.1571 56.7764 95.7651 56.6724 96.2291 56.4644C96.3571 56.0644 96.4611 55.5844 96.5411 55.0244C96.6371 54.4484 96.6851 53.9124 96.6851 53.4164C96.6851 52.1844 96.4691 51.2324 96.0371 50.5604C95.6211 49.8884 95.0371 49.5524 94.2851 49.5524C93.8211 49.5524 93.2771 49.6884 92.6531 49.9604V56.4884C93.1171 56.6804 93.7011 56.7764 94.4051 56.7764ZM101.375 57.0884L102.863 56.6564V45.1604C102.863 44.8084 102.839 44.5844 102.791 44.4884C102.743 44.3764 102.615 44.2564 102.407 44.1284L101.351 43.5764L101.423 41.7524L102.167 41.6324C104.279 41.2484 105.759 41.0404 106.607 41.0084C106.751 41.3924 106.855 41.8084 106.919 42.2564V47.7284C107.799 47.3284 108.543 47.0404 109.151 46.8644C109.775 46.6724 110.391 46.5764 110.999 46.5764C113.495 46.5764 114.743 48.0964 114.743 51.1364V55.8644C114.743 56.2004 114.767 56.4244 114.815 56.5364C114.863 56.6484 114.999 56.7684 115.223 56.8964L116.375 57.5684L116.279 59.3684H109.655L109.535 57.0884L110.711 56.7524V52.1924C110.711 51.4884 110.687 50.9924 110.639 50.7044C110.607 50.4004 110.479 50.1684 110.255 50.0084C110.031 49.8484 109.655 49.7684 109.127 49.7684C108.615 49.7684 107.879 49.8564 106.919 50.0324V55.8644C106.919 56.2004 106.943 56.4244 106.991 56.5364C107.039 56.6484 107.167 56.7684 107.375 56.8964L108.551 57.5684L108.455 59.3684H101.495L101.375 57.0884ZM120.675 59.6804C119.587 59.6804 118.715 59.3844 118.059 58.7924C117.403 58.1844 117.075 57.4084 117.075 56.4644C117.075 55.2004 117.707 54.2084 118.971 53.4884C120.251 52.7684 122.107 52.3604 124.539 52.2644C124.539 51.5124 124.475 50.9604 124.347 50.6084C124.235 50.2404 124.019 49.9924 123.699 49.8644C123.395 49.7204 122.923 49.6484 122.283 49.6484C121.627 49.6484 121.163 49.6724 120.891 49.7204L119.907 51.6644L118.131 51.5444C117.859 50.2644 117.667 48.9364 117.555 47.5604C118.451 47.2564 119.427 47.0164 120.483 46.8404C121.555 46.6644 122.555 46.5764 123.483 46.5764C125.179 46.5764 126.395 46.9124 127.131 47.5844C127.867 48.2404 128.235 49.3364 128.235 50.8724V55.8884C128.235 56.1764 128.259 56.3764 128.307 56.4884C128.371 56.6004 128.499 56.7124 128.691 56.8244L129.651 57.3764L129.555 58.8644C127.699 59.2964 126.235 59.5364 125.163 59.5844C125.131 59.4884 125.083 59.3204 125.019 59.0804C124.955 58.8244 124.899 58.5844 124.851 58.3604C124.227 58.7604 123.539 59.0804 122.787 59.3204C122.051 59.5604 121.347 59.6804 120.675 59.6804ZM122.283 56.9684C122.923 56.9684 123.699 56.7524 124.611 56.3204L124.515 54.4964C124.131 54.4644 123.875 54.4484 123.747 54.4484C123.315 54.4484 122.811 54.4964 122.235 54.5924C121.659 54.6724 121.203 54.7684 120.867 54.8804C120.819 55.0884 120.795 55.2804 120.795 55.4564C120.795 55.9364 120.923 56.3124 121.179 56.5844C121.451 56.8404 121.819 56.9684 122.283 56.9684Z" fill="black"/>
<defs>
<filter id="filter0_i" x="4.56" y="8.248" width="94.5926" height="39.232" filterUnits="userSpaceOnUse" color-interpolation-filters="sRGB">
<feFlood flood-opacity="0" result="BackgroundImageFix"/>
<feBlend mode="normal" in="SourceGraphic" in2="BackgroundImageFix" result="shape"/>
<feColorMatrix in="SourceAlpha" type="matrix" values="0 0 0 0 0 0 0 0 0 0 0 0 0 0 0 0 0 0 127 0" result="hardAlpha"/>
<feOffset dy="4"/>
<feGaussianBlur stdDeviation="2"/>
<feComposite in2="hardAlpha" operator="arithmetic" k2="-1" k3="1"/>
<feColorMatrix type="matrix" values="0 0 0 0 0 0 0 0 0 0 0 0 0 0 0 0 0 0 0.25 0"/>
<feBlend mode="normal" in2="shape" result="effect1_innerShadow"/>
</filter>
</defs>
</svg>
