<svg width="118" height="42" viewBox="0 0 118 42" fill="none" xmlns="http://www.w3.org/2000/svg">
    <path
        d="M11.0529 14.7488C13.7785 14.7488 16.114 15.7403 18.0596 17.7235C20.0145 19.7066 20.992 22.0798 20.992 24.843C20.992 27.6532 20.0098 30.0404 18.0455 32.0048C16.0812 33.9691 13.6939 34.9513 10.8837 34.9513C8.09227 34.9513 5.7097 33.9644 3.73598 31.9907C1.76225 30.0169 0.775392 27.6344 0.775392 24.843C0.775392 22.0234 1.76695 19.6361 3.75008 17.6812C5.7426 15.7262 8.17686 14.7488 11.0529 14.7488ZM10.8837 20.4162C9.70884 20.4162 8.70788 20.8485 7.8808 21.7132C7.05371 22.5779 6.64017 23.6211 6.64017 24.843C6.64017 26.0648 7.05371 27.1081 7.8808 27.9727C8.71728 28.8374 9.71824 29.2698 10.8837 29.2698C12.0679 29.2698 13.0689 28.8421 13.8866 27.9868C14.7136 27.1222 15.1272 26.0742 15.1272 24.843C15.1272 23.6117 14.7136 22.5685 13.8866 21.7132C13.0689 20.8485 12.0679 20.4162 10.8837 20.4162ZM35.8372 34.4719H30.5645V26.5347C30.5645 25.7264 30.2309 25.3223 29.5636 25.3223C28.9057 25.3223 28.5767 25.7264 28.5767 26.5347V34.4719H23.304V26.6334C23.304 24.8007 23.9103 23.2593 25.1227 22.0093C26.3351 20.7498 27.8201 20.1201 29.5777 20.1201C31.589 20.1201 33.2009 20.8485 34.4133 22.3053C35.3626 23.4426 35.8372 25.0262 35.8372 27.0564V34.4719ZM44.1973 15.2281V34.4719H38.9247V15.2281H44.1973ZM49.1175 40.6328V36.0509C49.8318 36.3517 50.4568 36.502 50.9926 36.502C52.7031 36.502 53.8122 35.5387 54.3197 33.6119C53.3986 34.1571 52.4964 34.4296 51.6129 34.4296C50.3065 34.4296 49.2303 33.9456 48.3844 32.9775C47.5386 32.0001 47.1156 30.7594 47.1156 29.2557V20.4162H52.3883V27.9727C52.3883 28.8092 52.736 29.2275 53.4315 29.2275C54.0988 29.2275 54.4325 28.7669 54.4325 27.8459V20.4162H59.7052V32.9634C59.7052 35.3037 59.0472 37.1928 57.7314 38.6308C56.1618 40.3414 54.2633 41.1967 52.0358 41.1967C51.0584 41.1967 50.0856 41.0087 49.1175 40.6328Z"
        fill="#D12771"/>
    <path
        d="M10.3677 2.58312V7.92436C10.3677 8.59088 10.1666 9.13424 9.76453 9.55444C9.36245 9.97464 8.84263 10.1847 8.20509 10.1847C7.43714 10.1847 6.85031 9.83518 6.4446 9.13606C6.19465 9.51279 5.92659 9.78266 5.64042 9.94566C5.35425 10.105 5.00107 10.1847 4.58087 10.1847C3.91434 10.1847 3.40358 9.97464 3.04859 9.55444C2.69359 9.13424 2.51609 8.5293 2.51609 7.73962V2.58312H4.72214V7.40817C4.72214 7.64724 4.74025 7.80482 4.77648 7.88089C4.81632 7.95696 4.8942 7.995 5.01012 7.995C5.22747 7.995 5.33614 7.81206 5.33614 7.4462V2.58312H7.54219V7.40817C7.54219 7.64 7.56211 7.79576 7.60196 7.87546C7.6418 7.95515 7.71968 7.995 7.8356 7.995C8.05295 7.995 8.16162 7.79939 8.16162 7.40817V2.58312H10.3677ZM16.8826 7.62008H13.8017C13.7546 7.46431 13.7311 7.32123 13.7311 7.19082C13.7311 7.0097 13.7637 6.8322 13.8289 6.65833H14.8613C14.7888 6.25624 14.5624 6.0552 14.1821 6.0552C13.9285 6.0552 13.722 6.16387 13.5626 6.38121C13.4032 6.59493 13.3236 6.87024 13.3236 7.20712C13.3236 7.5585 13.3996 7.84285 13.5518 8.0602C13.7075 8.27754 13.9104 8.38622 14.1603 8.38622C14.3632 8.38622 14.5588 8.28479 14.7472 8.08193L15.9045 9.47294C15.3648 9.89676 14.7653 10.1087 14.106 10.1087C13.3018 10.1087 12.6262 9.8388 12.0793 9.29906C11.5323 8.75932 11.2588 8.09099 11.2588 7.29406C11.2588 6.50075 11.5341 5.83061 12.0847 5.28362C12.6389 4.73664 13.3181 4.46315 14.1223 4.46315C14.9084 4.46315 15.5676 4.7312 16.1001 5.26732C16.6362 5.79982 16.9043 6.45728 16.9043 7.23972C16.9043 7.31942 16.8971 7.4462 16.8826 7.62008ZM23.5224 7.96783V10.0706C23.3558 10.0996 23.2037 10.1141 23.066 10.1141C22.251 10.1141 21.5718 9.84605 21.0284 9.30993C20.4851 8.77381 20.2134 8.10186 20.2134 7.29406C20.2134 6.508 20.4869 5.84147 21.0339 5.29449C21.5845 4.74751 22.2528 4.47401 23.0389 4.47401C23.9155 4.47401 24.6055 4.7312 25.1091 5.24559C25.6162 5.75635 25.8698 6.45547 25.8698 7.34296V10H23.8376V7.48967C23.8376 7.2035 23.767 6.97529 23.6257 6.80503C23.488 6.63478 23.3015 6.54965 23.066 6.54965C22.8523 6.54965 22.6676 6.62754 22.5118 6.7833C22.356 6.93906 22.2782 7.12381 22.2782 7.33753C22.2782 7.56212 22.3488 7.74686 22.4901 7.89176C22.6313 8.03665 22.8106 8.1091 23.028 8.1091C23.2055 8.1091 23.3703 8.06201 23.5224 7.96783ZM30.0265 4.52835V6.7018C29.8852 6.6221 29.7566 6.58226 29.6407 6.58226C29.2712 6.58226 29.0865 6.8648 29.0865 7.4299V10H27.0543V7.03868C27.0543 6.25624 27.268 5.63318 27.6955 5.16952C28.1229 4.70223 28.6934 4.46858 29.4071 4.46858C29.5664 4.46858 29.7729 4.4885 30.0265 4.52835ZM35.9546 7.62008H32.8737C32.8266 7.46431 32.8031 7.32123 32.8031 7.19082C32.8031 7.0097 32.8357 6.8322 32.9009 6.65833H33.9333C33.8608 6.25624 33.6344 6.0552 33.2541 6.0552C33.0005 6.0552 32.794 6.16387 32.6346 6.38121C32.4752 6.59493 32.3955 6.87024 32.3955 7.20712C32.3955 7.5585 32.4716 7.84285 32.6238 8.0602C32.7795 8.27754 32.9824 8.38622 33.2323 8.38622C33.4352 8.38622 33.6308 8.28479 33.8191 8.08193L34.9765 9.47294C34.4368 9.89676 33.8373 10.1087 33.178 10.1087C32.3738 10.1087 31.6982 9.8388 31.1512 9.29906C30.6043 8.75932 30.3308 8.09099 30.3308 7.29406C30.3308 6.50075 30.6061 5.83061 31.1567 5.28362C31.7109 4.73664 32.3901 4.46315 33.1943 4.46315C33.9803 4.46315 34.6396 4.7312 35.1721 5.26732C35.7082 5.79982 35.9763 6.45728 35.9763 7.23972C35.9763 7.31942 35.9691 7.4462 35.9546 7.62008Z"
        fill="#303549"/>
    <path
        d="M75.1871 16.0315C77.9128 16.0315 80.2483 17.0231 82.1939 19.0062C84.1488 20.9893 85.1262 23.3625 85.1262 26.1257C85.1262 28.9359 84.1441 31.3232 82.1798 33.2875C80.2154 35.2518 77.8282 36.234 75.018 36.234C72.2265 36.234 69.844 35.2471 67.8703 33.2734C65.8965 31.2997 64.9097 28.9171 64.9097 26.1257C64.9097 23.3061 65.9012 20.9188 67.8844 18.9639C69.8769 17.009 72.3111 16.0315 75.1871 16.0315ZM75.018 21.6989C73.8431 21.6989 72.8422 22.1312 72.0151 22.9959C71.188 23.8606 70.7744 24.9039 70.7744 26.1257C70.7744 27.3475 71.188 28.3908 72.0151 29.2554C72.8516 30.1201 73.8525 30.5525 75.018 30.5525C76.2022 30.5525 77.2031 30.1248 78.0208 29.2695C78.8479 28.4049 79.2615 27.3569 79.2615 26.1257C79.2615 24.8945 78.8479 23.8512 78.0208 22.9959C77.2031 22.1312 76.2022 21.6989 75.018 21.6989ZM99.9715 35.7546H94.6988V27.8174C94.6988 27.0092 94.3652 26.605 93.6978 26.605C93.0399 26.605 92.711 27.0092 92.711 27.8174V35.7546H87.4383V27.9161C87.4383 26.0834 88.0445 24.542 89.257 23.292C90.4694 22.0326 91.9544 21.4028 93.7119 21.4028C95.7233 21.4028 97.3351 22.1312 98.5476 23.588C99.4968 24.7253 99.9715 26.309 99.9715 28.3391V35.7546ZM116.875 29.5797H108.881C108.759 29.1756 108.698 28.8043 108.698 28.466C108.698 27.996 108.783 27.5355 108.952 27.0844H111.631C111.443 26.0411 110.855 25.5195 109.868 25.5195C109.21 25.5195 108.675 25.8014 108.261 26.3654C107.848 26.9199 107.641 27.6342 107.641 28.5083C107.641 29.4199 107.838 30.1577 108.233 30.7216C108.637 31.2856 109.163 31.5675 109.812 31.5675C110.338 31.5675 110.846 31.3044 111.334 30.778L114.337 34.3871C112.937 35.4868 111.381 36.0366 109.671 36.0366C107.584 36.0366 105.832 35.3364 104.412 33.936C102.993 32.5356 102.284 30.8015 102.284 28.7338C102.284 26.6755 102.998 24.9368 104.426 23.5175C105.864 22.0983 107.627 21.3887 109.713 21.3887C111.753 21.3887 113.463 22.0843 114.845 23.4753C116.236 24.8569 116.931 26.5627 116.931 28.5928C116.931 28.7996 116.913 29.1286 116.875 29.5797Z"
        fill="#303549"/>
</svg>
