<svg width="10" height="11" viewBox="0 0 10 11" fill="none" xmlns="http://www.w3.org/2000/svg">
    <path fill-rule="evenodd" clip-rule="evenodd"
          d="M6.15494 7.90498C5.5221 8.34119 4.755 8.59659 3.92826 8.59659C1.75874 8.59659 0 6.83783 0 4.66829C0 2.49875 1.75874 0.73999 3.92826 0.73999C6.09777 0.73999 7.85651 2.49875 7.85651 4.66829C7.85651 5.49499 7.60115 6.26204 7.165 6.89487L10 9.72991L8.98993 10.74L6.15494 7.90498ZM6.42806 4.66829C6.42806 6.04891 5.30886 7.16812 3.92826 7.16812C2.54766 7.16812 1.42846 6.04891 1.42846 4.66829C1.42846 3.28767 2.54766 2.16846 3.92826 2.16846C5.30886 2.16846 6.42806 3.28767 6.42806 4.66829Z"
          fill="#8C99B2"/>
</svg>
