<svg width="16" height="16" viewBox="0 0 16 16" fill="none" xmlns="http://www.w3.org/2000/svg">
    <path
        d="M8.54995 1.75L8.69995 2.65L8.79995 3.25L9.39995 3.45C9.69995 3.55 9.99995 3.65 10.25 3.8L10.8 4.1L11.3 3.75L12.1 3.2L12.9 4L12.35 4.75L12 5.25L12.3 5.8C12.45 6.05 12.55 6.35 12.65 6.6L12.85 7.2L13.45 7.3L14.4 7.45V8.55L13.45 8.7L12.85 8.8L12.65 9.4C12.55 9.65 12.45 9.95 12.3 10.2L12 10.75L12.35 11.25L12.9 12L12.1 12.8L11.3 12.25L10.8 11.9L10.25 12.2C9.99995 12.35 9.69995 12.45 9.39995 12.55L8.79995 12.75L8.69995 13.35L8.54995 14.3H7.39995L7.24995 13.35L7.14995 12.75L6.54995 12.55C6.24995 12.45 5.99995 12.35 5.74995 12.2L5.19995 11.9L4.69995 12.25L3.89995 12.8L3.09995 12L3.64995 11.25L3.99995 10.75L3.69995 10.2C3.59995 10 3.49995 9.7 3.39995 9.45L3.19995 8.85L2.59995 8.75L1.64995 8.6V7.5L2.59995 7.35L3.19995 7.25L3.39995 6.65C3.49995 6.35 3.59995 6.1 3.74995 5.85L3.99995 5.25L3.64995 4.75L3.09995 4L3.89995 3.2L4.69995 3.75L5.19995 4.1L5.74995 3.8C5.99995 3.7 6.24995 3.55 6.54995 3.5L7.14995 3.3L7.24995 2.7L7.39995 1.75H8.54995ZM8.59995 0.75H7.29995C6.84995 0.75 6.49995 1.05 6.39995 1.5L6.19995 2.55C5.84995 2.65 5.49995 2.8 5.19995 2.95L4.39995 2.35C4.24995 2.25 4.09995 2.2 3.89995 2.2C3.64995 2.2 3.44995 2.3 3.24995 2.45L2.34995 3.35C1.99995 3.65 1.99995 4.15 2.24995 4.5L2.84995 5.35C2.69995 5.65 2.54995 6 2.44995 6.35L1.44995 6.5C0.999951 6.55 0.699951 6.95 0.699951 7.4V8.7C0.699951 9.15 0.999951 9.5 1.44995 9.6L2.49995 9.8C2.59995 10.15 2.74995 10.45 2.89995 10.8L2.29995 11.65C2.04995 12 2.09995 12.5 2.39995 12.8L3.29995 13.7C3.44995 13.85 3.69995 13.95 3.94995 13.95C4.14995 13.95 4.29995 13.9 4.44995 13.8L5.29995 13.2C5.59995 13.35 5.94995 13.5 6.24995 13.6L6.39995 14.6C6.44995 15.05 6.84995 15.35 7.29995 15.35H8.59995C9.04995 15.35 9.39995 15.05 9.49995 14.6L9.64995 13.6C9.99995 13.5 10.35 13.35 10.65 13.2L11.5 13.8C11.65 13.9 11.85 13.95 12.05 13.95C12.3 13.95 12.5 13.85 12.7 13.7L13.6 12.8C13.9 12.5 13.95 12 13.7 11.65L13.1 10.8C13.25 10.5 13.4 10.15 13.5 9.8L14.55 9.65C15 9.6 15.3 9.2 15.3 8.75V7.45C15.3 7 15 6.65 14.55 6.55L13.5 6.4C13.4 6.05 13.25 5.75 13.1 5.4L13.75 4.5C14 4.15 13.95 3.65 13.65 3.35L12.75 2.45C12.6 2.3 12.35 2.2 12.1 2.2C11.9 2.2 11.75 2.25 11.6 2.35L10.75 2.95C10.4 2.8 10.05 2.65 9.69995 2.55L9.49995 1.5C9.44995 1.05 9.04995 0.75 8.59995 0.75Z"
        fill="#8C99B2"/>
    <path
        d="M7.9999 10.0999C9.1597 10.0999 10.0999 9.1597 10.0999 7.9999C10.0999 6.8401 9.1597 5.8999 7.9999 5.8999C6.8401 5.8999 5.8999 6.8401 5.8999 7.9999C5.8999 9.1597 6.8401 10.0999 7.9999 10.0999Z"
        stroke="#8C99B2" stroke-miterlimit="10" stroke-linecap="square"/>
</svg>
