<svg width="13" height="14" viewBox="0 0 13 14" fill="none" xmlns="http://www.w3.org/2000/svg">
<path d="M10.1031 9.69534L7.61673 12.1817C7.301 12.4975 6.78794 12.4975 6.43274 12.1817L1.02586 6.77484C0.71013 6.45911 0.71013 5.94605 1.02586 5.59085L3.51224 3.10447C3.82797 2.78874 4.34103 2.78874 4.69623 3.10447L10.1031 8.51136C10.4188 8.82709 10.4188 9.37961 10.1031 9.69534Z" stroke="#8C99B2" stroke-width="0.789326" stroke-miterlimit="10" stroke-linecap="round" stroke-linejoin="round"/>
<path d="M5.02344 3.43042L1.36768 7.08618L6.05599 11.7745L9.71175 8.11873L5.02344 3.43042Z" stroke="#8C99B2" stroke-width="0.789326" stroke-miterlimit="10" stroke-linecap="round" stroke-linejoin="round"/>
<path d="M7.45898 3.02563C8.9587 3.02563 10.1822 4.24909 10.1822 5.74881" stroke="#8C99B2" stroke-width="0.789326" stroke-miterlimit="10" stroke-linecap="round" stroke-linejoin="round"/>
<path d="M7.45898 1.36792C9.86643 1.36792 11.8397 3.34123 11.8397 5.74868" stroke="#8C99B2" stroke-width="0.789326" stroke-miterlimit="10" stroke-linecap="round" stroke-linejoin="round"/>
</svg>
