<?xml version="1.0" encoding="utf-8"?>

<svg version="1.1" id="Icons" xmlns="http://www.w3.org/2000/svg" xmlns:xlink="http://www.w3.org/1999/xlink" x="0px" y="0px"
	 viewBox="0 0 32 32" style="enable-background:new 0 0 32 32;" xml:space="preserve">
<style type="text/css">
	.st0{fill:none;stroke:#000000;stroke-width:2;stroke-linecap:round;stroke-linejoin:round;stroke-miterlimit:10;}
	.st1{fill:none;stroke:#000000;stroke-width:2;stroke-linejoin:round;stroke-miterlimit:10;}
</style>
<polyline class="st0" points="2,16 12,22 22,16 "/>
<path class="st0" d="M18,11H6c-2.2,0-4,1.8-4,4v10c0,2.2,1.8,4,4,4h12c2.2,0,4-1.8,4-4V15C22,12.8,20.2,11,18,11z"/>
<line class="st0" x1="21.5" y1="13.1" x2="30" y2="8"/>
<path class="st0" d="M22,21h4c2.2,0,4-1.8,4-4V7c0-2.2-1.8-4-4-4H14c-2.2,0-4,1.8-4,4v4"/>
</svg>
