<svg width="15" height="15" viewBox="0 0 15 15" fill="none" xmlns="http://www.w3.org/2000/svg">
<path d="M7.49856 10.6386C9.23275 10.6386 10.6386 9.23278 10.6386 7.49859C10.6386 5.76439 9.23275 4.35855 7.49856 4.35855C5.76436 4.35855 4.35852 5.76439 4.35852 7.49859C4.35852 9.23278 5.76436 10.6386 7.49856 10.6386Z" stroke="#8C99B2" stroke-width="0.789326" stroke-miterlimit="10" stroke-linecap="round" stroke-linejoin="round"/>
<path d="M7.49858 13.1225C10.6046 13.1225 13.1225 10.6046 13.1225 7.4986C13.1225 4.39258 10.6046 1.87465 7.49858 1.87465C4.39256 1.87465 1.87463 4.39258 1.87463 7.4986C1.87463 10.6046 4.39256 13.1225 7.49858 13.1225Z" stroke="#8C99B2" stroke-width="0.789326" stroke-miterlimit="10" stroke-linecap="round" stroke-linejoin="round"/>
<path d="M7.49862 8.3422C7.96452 8.3422 8.34221 7.96451 8.34221 7.49861C8.34221 7.0327 7.96452 6.65501 7.49862 6.65501C7.03272 6.65501 6.65503 7.0327 6.65503 7.49861C6.65503 7.96451 7.03272 8.3422 7.49862 8.3422Z" stroke="#8C99B2" stroke-width="0.789326" stroke-miterlimit="10" stroke-linecap="round" stroke-linejoin="round"/>
<path d="M11.2479 7.4986H14.0599" stroke="#8C99B2" stroke-width="0.789326" stroke-miterlimit="10" stroke-linecap="round" stroke-linejoin="round"/>
<path d="M0.937378 7.4986H3.74935" stroke="#8C99B2" stroke-width="0.789326" stroke-miterlimit="10" stroke-linecap="round" stroke-linejoin="round"/>
<path d="M7.49854 3.7493V0.937325" stroke="#8C99B2" stroke-width="0.789326" stroke-miterlimit="10" stroke-linecap="round" stroke-linejoin="round"/>
<path d="M7.49854 14.0599V11.2479" stroke="#8C99B2" stroke-width="0.789326" stroke-miterlimit="10" stroke-linecap="round" stroke-linejoin="round"/>
</svg>
