<svg width="13" height="13" viewBox="0 0 13 13" fill="none" xmlns="http://www.w3.org/2000/svg">
    <path
        d="M4.94662 0.856201H1.78932C1.35339 0.856201 1 1.21509 1 1.65781V4.86422C1 5.30694 1.35339 5.66583 1.78932 5.66583H4.94662C5.38255 5.66583 5.73594 5.30694 5.73594 4.86422V1.65781C5.73594 1.21509 5.38255 0.856201 4.94662 0.856201Z"
        stroke="#8C99B2" stroke-width="0.789326"/>
    <path
        d="M11.2612 0.856201H8.10392C7.66799 0.856201 7.31459 1.21509 7.31459 1.65781V4.86422C7.31459 5.30694 7.66799 5.66583 8.10392 5.66583H11.2612C11.6971 5.66583 12.0505 5.30694 12.0505 4.86422V1.65781C12.0505 1.21509 11.6971 0.856201 11.2612 0.856201Z"
        stroke="#8C99B2" stroke-width="0.789326"/>
    <path
        d="M11.2612 7.26904H8.10392C7.66799 7.26904 7.31459 7.62793 7.31459 8.07064V11.2771C7.31459 11.7198 7.66799 12.0787 8.10392 12.0787H11.2612C11.6971 12.0787 12.0505 11.7198 12.0505 11.2771V8.07064C12.0505 7.62793 11.6971 7.26904 11.2612 7.26904Z"
        stroke="#8C99B2" stroke-width="0.789326"/>
    <path
        d="M4.94662 7.26904H1.78932C1.35339 7.26904 1 7.62793 1 8.07064V11.2771C1 11.7198 1.35339 12.0787 1.78932 12.0787H4.94662C5.38255 12.0787 5.73594 11.7198 5.73594 11.2771V8.07064C5.73594 7.62793 5.38255 7.26904 4.94662 7.26904Z"
        stroke="#8C99B2" stroke-width="0.789326"/>
</svg>
