<svg width="13" height="13" viewBox="0 0 13 13" fill="none" xmlns="http://www.w3.org/2000/svg">
    <path
        d="M4.68372 6.04196C6.03996 6.04196 7.1394 4.92541 7.1394 3.54808C7.1394 2.17075 6.03996 1.0542 4.68372 1.0542C3.32748 1.0542 2.22803 2.17075 2.22803 3.54808C2.22803 4.92541 3.32748 6.04196 4.68372 6.04196Z"
        stroke="#8C99B2" stroke-width="0.789326" stroke-linecap="round" stroke-linejoin="round"/>
    <path
        d="M1 12.2767V11.0298C1 10.3684 1.25872 9.73402 1.71925 9.26633C2.17979 8.79864 2.8044 8.53589 3.45569 8.53589H5.91138C6.56267 8.53589 7.18728 8.79864 7.64781 9.26633C8.10834 9.73402 8.36707 10.3684 8.36707 11.0298V12.2767"
        stroke="#8C99B2" stroke-width="0.789326" stroke-linecap="round" stroke-linejoin="round"/>
    <path
        d="M8.98096 1.13525C9.50918 1.2726 9.97736 1.58459 10.3117 2.02202C10.646 2.45945 10.8275 2.99745 10.8275 3.5512C10.8275 4.10495 10.646 4.64294 10.3117 5.08038C9.97736 5.51781 9.50918 5.82979 8.98096 5.96714"
        stroke="#8C99B2" stroke-width="0.789326" stroke-linecap="round" stroke-linejoin="round"/>
    <path d="M12.0502 12.2767V11.0298C12.0471 10.4793 11.8648 9.94541 11.5316 9.51123C11.1985 9.07705 10.7333 8.76699 10.2085 8.62939" stroke="#8C99B2"
          stroke-width="0.789326" stroke-linecap="round" stroke-linejoin="round"/>
</svg>
