<svg width="19" height="24" viewBox="0 0 19 24" fill="none" xmlns="http://www.w3.org/2000/svg">
<path d="M3.49551 8.48739V7.0084C3.49551 3.68067 6.17618 1 9.50391 1H9.78123C13.109 1 15.7896 3.68067 15.7896 7.0084V8.48739M9.504 17.916V19.7647M2.7563 23H17.0084C17.5607 23 18.0084 22.5523 18.0084 22V12.6471C18.0084 11.7227 17.2689 10.8908 16.2521 10.8908H2.7563C1.83193 10.8908 1 11.6303 1 12.6471V21.2437C1 22.1681 1.7395 23 2.7563 23ZM11.3528 15.8823C11.3528 16.9034 10.5251 17.7311 9.50404 17.7311C8.48301 17.7311 7.6553 16.9034 7.6553 15.8823C7.6553 14.8613 8.48301 14.0336 9.50404 14.0336C10.5251 14.0336 11.3528 14.8613 11.3528 15.8823Z" stroke="#8C99B2" stroke-width="1.5" stroke-miterlimit="10" stroke-linecap="round" stroke-linejoin="round"/>
</svg>
