<svg width="20" height="14" viewBox="0 0 20 14" fill="none" xmlns="http://www.w3.org/2000/svg">
<path d="M13.125 6.875C13.125 7.7038 12.7958 8.49866 12.2097 9.08471C11.6237 9.67076 10.8288 10 10 10C9.1712 10 8.37634 9.67076 7.79029 9.08471C7.20424 8.49866 6.875 7.7038 6.875 6.875C6.875 6.0462 7.20424 5.25134 7.79029 4.66529C8.37634 4.07924 9.1712 3.75 10 3.75C10.8288 3.75 11.6237 4.07924 12.2097 4.66529C12.7958 5.25134 13.125 6.0462 13.125 6.875Z" fill="#8C99B2"/>
<path fill-rule="evenodd" clip-rule="evenodd" d="M0 6.875C0 6.875 3.75 0 10 0C16.25 0 20 6.875 20 6.875C20 6.875 16.25 13.75 10 13.75C3.75 13.75 0 6.875 0 6.875ZM10 11.25C11.1603 11.25 12.2731 10.7891 13.0936 9.96859C13.9141 9.14812 14.375 8.03532 14.375 6.875C14.375 5.71468 13.9141 4.60188 13.0936 3.78141C12.2731 2.96094 11.1603 2.5 10 2.5C8.83968 2.5 7.72688 2.96094 6.90641 3.78141C6.08594 4.60188 5.625 5.71468 5.625 6.875C5.625 8.03532 6.08594 9.14812 6.90641 9.96859C7.72688 10.7891 8.83968 11.25 10 11.25Z" fill="#8C99B2"/>
</svg>
